# xmcd CD database file
#
# Track frame offsets:
#	150
#	16972
#	36927
#	46363
#	57674
#	77782
#	99654
#	117653
#	134639
#	148947
#	171562
#	186261
#	199209
#
# Disc length: 2789 seconds
#
# Revision: 0
# Processed by: cddbd v1.5.2PL0 Copyright (c) Steve Scherf et al.
# Submitted via: CDex 1.70beta2
#
DISCID=d00ae30d
DTITLE=Various Artist - I remember bebop disc 1
DYEAR=2011
DGENRE=Jazz
TTITLE0=Al Haig - Dizzy Gillespie: A Night In Tunisia
TTITLE1=Al Haig - Dizzy Gillespie: Con Alma
TTITLE2=Al Haig - Dizzy Gillespie: Be - Bop
TTITLE3=Al Haig - Dizzy Gillespie: Saltpeanuts
TTITLE4=Duke Jordan - Tadd Dameron: Lady Bird
TTITLE5=Duke Jordan - Tadd Dameron: Cashbah
TTITLE6=John Lewis - John Lewis: Afternoon In Paris
TTITLE7=John Lewis - John Lewis: DJango
TTITLE8=John Lewis - John Lewis: Sacha's March
TTITLE9=John Lewis - John Lewis: Marjana Of My Heart
TTITLE10=Sadik Hakim - Charlie Parker: Yardbird
TTITLE11=Sadik Hakim - Charlie Parker: My Little Suede Shoes
TTITLE12=Sadik Hakim - Charlie Parker: Now's The Time
EXTD=YEAR: 2011
EXTT0=
EXTT1=
EXTT2=
EXTT3=
EXTT4=
EXTT5=
EXTT6=
EXTT7=
EXTT8=
EXTT9=
EXTT10=
EXTT11=
EXTT12=
PLAYORDER=
